<mxfile host="app.diagrams.net" modified="2024-04-07T04:25:24.621Z" agent="Mozilla/5.0 (Windows NT 10.0; Win64; x64) AppleWebKit/537.36 (KHTML, like Gecko) Chrome/122.0.0.0 Safari/537.36 OPR/108.0.0.0" etag="8ttfhidG1TQgLg6NRXrI" version="24.2.2" type="github">
  <diagram name="Page-1" id="f_ykirnJjztYS76yJxV8">
    <mxGraphModel dx="1423" dy="799" grid="1" gridSize="10" guides="1" tooltips="1" connect="1" arrows="1" fold="1" page="1" pageScale="1" pageWidth="850" pageHeight="1100" math="0" shadow="0">
      <root>
        <mxCell id="0" />
        <mxCell id="1" parent="0" />
        <mxCell id="QkvFy392g0j_PJk01nnA-27" value="" style="rounded=0;whiteSpace=wrap;html=1;fillColor=#e1d5e7;strokeColor=#9673a6;" vertex="1" parent="1">
          <mxGeometry x="260" width="410" height="490" as="geometry" />
        </mxCell>
        <mxCell id="QkvFy392g0j_PJk01nnA-14" style="edgeStyle=none;rounded=0;orthogonalLoop=1;jettySize=auto;html=1;exitX=1;exitY=0.3333333333333333;exitDx=0;exitDy=0;exitPerimeter=0;" edge="1" parent="1" source="QkvFy392g0j_PJk01nnA-1" target="QkvFy392g0j_PJk01nnA-7">
          <mxGeometry relative="1" as="geometry" />
        </mxCell>
        <mxCell id="QkvFy392g0j_PJk01nnA-15" style="edgeStyle=none;rounded=0;orthogonalLoop=1;jettySize=auto;html=1;exitX=1;exitY=0.3333333333333333;exitDx=0;exitDy=0;exitPerimeter=0;" edge="1" parent="1" source="QkvFy392g0j_PJk01nnA-1" target="QkvFy392g0j_PJk01nnA-8">
          <mxGeometry relative="1" as="geometry" />
        </mxCell>
        <mxCell id="QkvFy392g0j_PJk01nnA-24" style="edgeStyle=none;rounded=0;orthogonalLoop=1;jettySize=auto;html=1;exitX=1;exitY=0.3333333333333333;exitDx=0;exitDy=0;exitPerimeter=0;dashed=1;endArrow=none;endFill=0;" edge="1" parent="1" source="QkvFy392g0j_PJk01nnA-1" target="QkvFy392g0j_PJk01nnA-19">
          <mxGeometry relative="1" as="geometry" />
        </mxCell>
        <mxCell id="QkvFy392g0j_PJk01nnA-25" value="&amp;lt;extend&amp;gt;" style="edgeLabel;html=1;align=center;verticalAlign=middle;resizable=0;points=[];" vertex="1" connectable="0" parent="QkvFy392g0j_PJk01nnA-24">
          <mxGeometry x="0.0136" relative="1" as="geometry">
            <mxPoint as="offset" />
          </mxGeometry>
        </mxCell>
        <mxCell id="QkvFy392g0j_PJk01nnA-1" value="User" style="shape=umlActor;verticalLabelPosition=bottom;verticalAlign=top;html=1;outlineConnect=0;" vertex="1" parent="1">
          <mxGeometry x="190" y="250" width="30" height="60" as="geometry" />
        </mxCell>
        <mxCell id="QkvFy392g0j_PJk01nnA-17" style="edgeStyle=none;rounded=0;orthogonalLoop=1;jettySize=auto;html=1;exitX=0;exitY=0.3333333333333333;exitDx=0;exitDy=0;exitPerimeter=0;dashed=1;endArrow=none;endFill=0;" edge="1" parent="1" source="QkvFy392g0j_PJk01nnA-4" target="QkvFy392g0j_PJk01nnA-10">
          <mxGeometry relative="1" as="geometry" />
        </mxCell>
        <mxCell id="QkvFy392g0j_PJk01nnA-26" value="&amp;lt;include&amp;gt;" style="edgeLabel;html=1;align=center;verticalAlign=middle;resizable=0;points=[];" vertex="1" connectable="0" parent="QkvFy392g0j_PJk01nnA-17">
          <mxGeometry x="-0.0137" y="3" relative="1" as="geometry">
            <mxPoint as="offset" />
          </mxGeometry>
        </mxCell>
        <mxCell id="QkvFy392g0j_PJk01nnA-4" value="System" style="shape=umlActor;verticalLabelPosition=bottom;verticalAlign=top;html=1;outlineConnect=0;" vertex="1" parent="1">
          <mxGeometry x="710" y="240" width="30" height="60" as="geometry" />
        </mxCell>
        <mxCell id="QkvFy392g0j_PJk01nnA-5" value="Access the prescriptions and reports" style="ellipse;whiteSpace=wrap;html=1;" vertex="1" parent="1">
          <mxGeometry x="290" y="40" width="120" height="80" as="geometry" />
        </mxCell>
        <mxCell id="QkvFy392g0j_PJk01nnA-6" value="Add new prescription or record" style="ellipse;whiteSpace=wrap;html=1;" vertex="1" parent="1">
          <mxGeometry x="290" y="160" width="120" height="80" as="geometry" />
        </mxCell>
        <mxCell id="QkvFy392g0j_PJk01nnA-7" value="Upload prescription to search" style="ellipse;whiteSpace=wrap;html=1;" vertex="1" parent="1">
          <mxGeometry x="290" y="280" width="120" height="80" as="geometry" />
        </mxCell>
        <mxCell id="QkvFy392g0j_PJk01nnA-8" value="Confirm upload of prescription or report" style="ellipse;whiteSpace=wrap;html=1;" vertex="1" parent="1">
          <mxGeometry x="290" y="390" width="120" height="80" as="geometry" />
        </mxCell>
        <mxCell id="QkvFy392g0j_PJk01nnA-9" value="Retrieve the stored prescriptions or reports" style="ellipse;whiteSpace=wrap;html=1;" vertex="1" parent="1">
          <mxGeometry x="540" y="350" width="120" height="80" as="geometry" />
        </mxCell>
        <mxCell id="QkvFy392g0j_PJk01nnA-10" value="Validate file format" style="ellipse;whiteSpace=wrap;html=1;" vertex="1" parent="1">
          <mxGeometry x="410" y="110" width="120" height="80" as="geometry" />
        </mxCell>
        <mxCell id="QkvFy392g0j_PJk01nnA-11" value="Store the uploaded prescription or report" style="ellipse;whiteSpace=wrap;html=1;" vertex="1" parent="1">
          <mxGeometry x="510" y="50" width="120" height="80" as="geometry" />
        </mxCell>
        <mxCell id="QkvFy392g0j_PJk01nnA-12" style="rounded=0;orthogonalLoop=1;jettySize=auto;html=1;exitX=1;exitY=0.3333333333333333;exitDx=0;exitDy=0;exitPerimeter=0;entryX=0.083;entryY=0.875;entryDx=0;entryDy=0;entryPerimeter=0;" edge="1" parent="1" source="QkvFy392g0j_PJk01nnA-1" target="QkvFy392g0j_PJk01nnA-5">
          <mxGeometry relative="1" as="geometry" />
        </mxCell>
        <mxCell id="QkvFy392g0j_PJk01nnA-13" style="rounded=0;orthogonalLoop=1;jettySize=auto;html=1;exitX=1;exitY=0.3333333333333333;exitDx=0;exitDy=0;exitPerimeter=0;entryX=0.088;entryY=0.807;entryDx=0;entryDy=0;entryPerimeter=0;" edge="1" parent="1" source="QkvFy392g0j_PJk01nnA-1" target="QkvFy392g0j_PJk01nnA-6">
          <mxGeometry relative="1" as="geometry" />
        </mxCell>
        <mxCell id="QkvFy392g0j_PJk01nnA-16" style="edgeStyle=none;rounded=0;orthogonalLoop=1;jettySize=auto;html=1;exitX=0;exitY=0.3333333333333333;exitDx=0;exitDy=0;exitPerimeter=0;entryX=0.955;entryY=0.762;entryDx=0;entryDy=0;entryPerimeter=0;" edge="1" parent="1" source="QkvFy392g0j_PJk01nnA-4" target="QkvFy392g0j_PJk01nnA-11">
          <mxGeometry relative="1" as="geometry" />
        </mxCell>
        <mxCell id="QkvFy392g0j_PJk01nnA-18" style="edgeStyle=none;rounded=0;orthogonalLoop=1;jettySize=auto;html=1;exitX=0;exitY=0.3333333333333333;exitDx=0;exitDy=0;exitPerimeter=0;" edge="1" parent="1" source="QkvFy392g0j_PJk01nnA-4" target="QkvFy392g0j_PJk01nnA-9">
          <mxGeometry relative="1" as="geometry" />
        </mxCell>
        <mxCell id="QkvFy392g0j_PJk01nnA-19" value="Authenticated user" style="ellipse;whiteSpace=wrap;html=1;" vertex="1" parent="1">
          <mxGeometry x="410" y="200" width="120" height="80" as="geometry" />
        </mxCell>
        <mxCell id="QkvFy392g0j_PJk01nnA-20" value="Confirm successful upload" style="ellipse;whiteSpace=wrap;html=1;" vertex="1" parent="1">
          <mxGeometry x="410" y="320" width="120" height="80" as="geometry" />
        </mxCell>
        <mxCell id="QkvFy392g0j_PJk01nnA-21" style="edgeStyle=none;rounded=0;orthogonalLoop=1;jettySize=auto;html=1;exitX=0;exitY=0.3333333333333333;exitDx=0;exitDy=0;exitPerimeter=0;entryX=0.988;entryY=0.638;entryDx=0;entryDy=0;entryPerimeter=0;dashed=1;endArrow=none;endFill=0;" edge="1" parent="1" source="QkvFy392g0j_PJk01nnA-4" target="QkvFy392g0j_PJk01nnA-19">
          <mxGeometry relative="1" as="geometry" />
        </mxCell>
        <mxCell id="QkvFy392g0j_PJk01nnA-22" value="&amp;lt;include&amp;gt;" style="edgeLabel;html=1;align=center;verticalAlign=middle;resizable=0;points=[];" vertex="1" connectable="0" parent="QkvFy392g0j_PJk01nnA-21">
          <mxGeometry x="0.0047" y="1" relative="1" as="geometry">
            <mxPoint as="offset" />
          </mxGeometry>
        </mxCell>
        <mxCell id="QkvFy392g0j_PJk01nnA-23" style="edgeStyle=none;rounded=0;orthogonalLoop=1;jettySize=auto;html=1;exitX=0;exitY=0.3333333333333333;exitDx=0;exitDy=0;exitPerimeter=0;entryX=0.93;entryY=0.248;entryDx=0;entryDy=0;entryPerimeter=0;" edge="1" parent="1" source="QkvFy392g0j_PJk01nnA-4" target="QkvFy392g0j_PJk01nnA-20">
          <mxGeometry relative="1" as="geometry" />
        </mxCell>
        <mxCell id="QkvFy392g0j_PJk01nnA-28" value="Store Prescriptions And Reports" style="text;html=1;align=center;verticalAlign=middle;whiteSpace=wrap;rounded=0;" vertex="1" parent="1">
          <mxGeometry x="367.5" width="195" height="30" as="geometry" />
        </mxCell>
      </root>
    </mxGraphModel>
  </diagram>
</mxfile>
